<svg width="146" height="27" viewBox="0 0 146 27" fill="none" xmlns="http://www.w3.org/2000/svg">
<path d="M19 0.119998H11.8L0.68 27H8.48L10.2 22.52H20.6L22.32 27H30.12L19 0.119998ZM12.44 16.76L15.4 9.08L18.36 16.76H12.44ZM50.5491 12.56C52.4291 11.88 53.7891 9.84 53.7891 7.16C53.7891 2.52 49.7091 0.119998 43.5491 0.119998H32.0291V27H45.8691C51.6291 27 55.0691 23.56 55.0691 18.92C55.0691 16.24 53.9491 13.32 50.5491 12.56ZM39.7091 5.88H42.9091C44.9491 5.88 46.1091 6.6 46.1091 8.12C46.1091 9.68 44.9491 10.36 42.9091 10.36H39.7091V5.88ZM43.5491 21.24H39.7091V16.12H43.5491C45.8691 16.12 47.3891 16.92 47.3891 18.68C47.3891 20.44 45.8691 21.24 43.5491 21.24ZM78.125 0.119998H71.085L67.245 16.12L62.765 0.119998H54.125L63.085 27H71.085L74.605 14.2L78.125 27H86.125L95.085 0.119998H86.445L81.965 16.12L78.125 0.119998ZM109.898 0.119998H102.698L91.5784 27H99.3784L101.098 22.52H111.498L113.218 27H121.018L109.898 0.119998ZM103.338 16.76L106.298 9.08L109.258 16.76H103.338ZM141.448 12.56C143.328 11.88 144.688 9.84 144.688 7.16C144.688 2.52 140.608 0.119998 134.448 0.119998H122.928V27H136.768C142.528 27 145.968 23.56 145.968 18.92C145.968 16.24 144.848 13.32 141.448 12.56ZM130.608 5.88H133.808C135.848 5.88 137.008 6.6 137.008 8.12C137.008 9.68 135.848 10.36 133.808 10.36H130.608V5.88ZM134.448 21.24H130.608V16.12H134.448C136.768 16.12 138.288 16.92 138.288 18.68C138.288 20.44 136.768 21.24 134.448 21.24Z" fill="black"/>
</svg>
