<svg width="237" height="48" viewBox="0 0 237 48" fill="none" xmlns="http://www.w3.org/2000/svg">
<path d="M9.92 39.2359V19.3959H2.24V46.2759H20.16V39.2359H9.92ZM40.0128 19.3959V34.8359C40.0128 38.1959 37.7728 39.8759 35.5328 39.8759C33.2928 39.8759 31.0528 38.1959 31.0528 34.8359V19.3959H22.7328V34.7559C22.7328 41.8359 27.5328 46.9159 35.5328 46.9159C43.5328 46.9159 48.3328 41.8359 48.3328 34.7559V19.3959H40.0128ZM59.8419 46.2759V36.0359H68.1619V29.6359H59.8419V26.4359H70.0819V19.3959H52.1619V46.2759H59.8419ZM72.0147 19.3959V26.4359H79.0547V46.2759H86.7347V26.4359H93.7747V19.3959H72.0147ZM113.607 19.3959V29.3159H104.647V19.3959H96.9666V46.2759H104.647V36.3559H113.607V46.2759H121.287V19.3959H113.607ZM141.516 19.3959H134.316L123.196 46.2759H130.996L132.716 41.7959H143.116L144.836 46.2759H152.636L141.516 19.3959ZM134.956 36.0359L137.916 28.3559L140.876 36.0359H134.956ZM172.465 19.3959V34.1159L162.225 19.3959H154.545V46.2759H162.225V31.5559L172.465 46.2759H180.145V19.3959H172.465ZM195.183 28.7159C192.343 28.3559 191.663 27.9559 191.663 27.0759C191.663 26.3559 192.343 25.7959 194.863 25.7959C200.223 25.7959 202.703 27.7159 202.703 27.7159L205.743 21.9559C202.103 18.7559 195.583 18.7559 195.583 18.7559C187.623 18.7559 183.983 22.7559 183.983 27.4759C183.983 32.1159 187.103 35.1159 194.423 36.2759C197.943 36.8359 199.343 37.0759 199.343 38.2359C199.343 39.7159 196.983 39.9559 194.863 39.8759C194.863 39.8759 190.183 39.8759 186.183 36.7959L183.343 42.9159C183.343 42.9159 187.703 46.9159 194.863 46.9159C203.503 46.9159 207.023 42.7159 207.023 37.5159C207.023 30.7159 200.463 29.3959 195.183 28.7159ZM225.344 19.3959H218.144L207.024 46.2759H214.824L216.544 41.7959H226.944L228.664 46.2759H236.464L225.344 19.3959ZM218.784 36.0359L221.744 28.3559L224.704 36.0359H218.784Z" fill="black"/>
<path d="M10.704 15H12.368L7.248 3.992L2.128 15H3.792L4.832 12.696H9.664L10.704 15ZM5.536 11.16L7.248 7.384L8.96 11.16H5.536ZM15.188 15V4.248H13.652V15H15.188ZM25.1758 15L22.4078 11.144C24.0078 10.712 24.9198 9.352 24.9198 7.688C24.9198 5.656 23.6238 4.248 20.8238 4.248H17.4958V15H19.0318V11.288H20.7118L23.3838 15H25.1758ZM19.0318 5.784H21.3518C22.4718 5.784 23.3838 6.376 23.3838 7.784C23.3838 9.176 22.4398 9.752 21.3198 9.752H19.0318V5.784ZM38.2335 5.784V4.248H32.0895V15H38.2335V13.464H33.6255V10.392H37.4655V8.856H33.6255V5.784H38.2335ZM49.237 15L45.333 9.448L48.981 4.248H47.141L44.373 8.248L41.605 4.248H39.765L43.413 9.448L39.509 15H41.365L44.373 10.664L47.381 15H49.237ZM56.921 5.784V4.248H50.777V15H56.921V13.464H52.313V10.392H56.153V8.856H52.313V5.784H56.921ZM60.5005 13.464V4.248H58.9645V15H64.8525V13.464H60.5005ZM68.188 15V4.248H66.652V15H68.188ZM79.4558 15L75.5518 9.448L79.1998 4.248H77.3598L74.5918 8.248L71.8238 4.248H69.9838L73.6318 9.448L69.7278 15H71.5838L74.5918 10.664L77.5998 15H79.4558ZM82.5318 15V4.248H80.9958V15H82.5318ZM89.4525 4.248V5.784H92.2685V15H93.8045V5.784H96.6205V4.248H89.4525ZM106.098 15L103.33 11.144C104.93 10.712 105.842 9.352 105.842 7.688C105.842 5.656 104.546 4.248 101.746 4.248H98.4176V15H99.9536V11.288H101.634L104.306 15H106.098ZM99.9536 5.784H102.274C103.394 5.784 104.306 6.376 104.306 7.784C104.306 9.176 103.362 9.752 102.242 9.752H99.9536V5.784ZM115.438 15H117.102L111.982 3.992L106.862 15H108.526L109.566 12.696H114.398L115.438 15ZM110.27 11.16L111.982 7.384L113.694 11.16H110.27ZM120.695 15.256L125.559 4.248H123.895L120.695 11.64L117.495 4.248H115.831L120.695 15.256ZM132.984 5.784V4.248H126.84V15H132.984V13.464H128.376V10.392H132.216V8.856H128.376V5.784H132.984ZM136.563 13.464V4.248H135.027V15H140.915V13.464H136.563Z" fill="black"/>
</svg>
