<svg width="333" height="29" viewBox="0 0 333 29" fill="none" xmlns="http://www.w3.org/2000/svg">
<path d="M16.88 1.12V11.04H7.92V1.12H0.24V28H7.92V18.08H16.88V28H24.56V1.12H16.88ZM42.1566 0.479999C34.0366 0.479999 27.4366 6.8 27.4366 14.56C27.4366 22.32 34.0366 28.64 42.1566 28.64C50.2766 28.64 56.8766 22.32 56.8766 14.56C56.8766 6.8 50.2766 0.479999 42.1566 0.479999ZM42.1566 21.6C38.2766 21.6 35.1166 18.44 35.1166 14.56C35.1166 10.68 38.2766 7.52 42.1566 7.52C46.0366 7.52 49.1966 10.68 49.1966 14.56C49.1966 18.44 46.0366 21.6 42.1566 21.6ZM77.6913 1.12V15.84L67.4513 1.12H59.7713V28H67.4513V13.28L77.6913 28H85.3713V1.12H77.6913ZM100.689 1.12H89.8494V28H100.689C109.689 28 114.809 22 114.809 14.56C114.809 7.12 109.929 1.12 100.689 1.12ZM101.369 20.96H97.5294V8.16H101.369C104.009 8.16 107.129 11.04 107.129 14.56C107.129 18.08 104.009 20.96 101.369 20.96ZM131.453 0.479999C123.333 0.479999 116.733 6.8 116.733 14.56C116.733 22.32 123.333 28.64 131.453 28.64C139.573 28.64 146.173 22.32 146.173 14.56C146.173 6.8 139.573 0.479999 131.453 0.479999ZM131.453 21.6C127.573 21.6 124.413 18.44 124.413 14.56C124.413 10.68 127.573 7.52 131.453 7.52C135.333 7.52 138.493 10.68 138.493 14.56C138.493 18.44 135.333 21.6 131.453 21.6ZM159.316 10.44C156.476 10.08 155.796 9.68 155.796 8.8C155.796 8.08 156.476 7.52 158.996 7.52C164.356 7.52 166.836 9.44 166.836 9.44L169.876 3.68C166.236 0.479999 159.716 0.479999 159.716 0.479999C151.756 0.479999 148.116 4.48 148.116 9.2C148.116 13.84 151.236 16.84 158.556 18C162.076 18.56 163.476 18.8 163.476 19.96C163.476 21.44 161.116 21.68 158.996 21.6C158.996 21.6 154.316 21.6 150.316 18.52L147.476 24.64C147.476 24.64 151.836 28.64 158.996 28.64C167.636 28.64 171.156 24.44 171.156 19.24C171.156 12.44 164.596 11.12 159.316 10.44ZM199.905 21.6C195.705 21.6 192.265 18.44 192.265 14.56C192.265 10.68 195.705 7.52 199.905 7.52C202.345 7.52 204.545 8.6 205.985 10.24L208.905 3.68C206.505 1.6 202.865 0.479999 199.705 0.479999C191.385 0.479999 184.585 6.8 184.585 14.56C184.585 22.32 191.385 28.64 199.705 28.64C202.865 28.64 206.505 27.48 208.905 25.4L205.985 18.88C204.545 20.52 202.345 21.6 199.905 21.6ZM229.723 8.16V1.12H211.803V28H229.723V20.96H219.483V17.76H227.803V11.36H219.483V8.16H229.723ZM251.48 1.12V15.84L241.24 1.12H233.56V28H241.24V13.28L251.48 28H259.16V1.12H251.48ZM262.358 1.12V8.16H269.398V28H277.078V8.16H284.118V1.12H262.358ZM305.23 8.16V1.12H287.31V28H305.23V20.96H294.99V17.76H303.31V11.36H294.99V8.16H305.23ZM326.148 18.96C329.548 17.52 331.468 14.04 331.468 10.08C331.468 4.88 328.228 1.12 321.228 1.12H309.068V28H316.748V19.68H318.228L323.788 28H332.748L326.148 18.96ZM320.508 13.28H316.748V7.52H320.508C322.308 7.52 323.788 8.44 323.788 10.4C323.788 12.4 322.308 13.28 320.508 13.28Z" fill="black"/>
</svg>
