<svg width="245" height="29" viewBox="0 0 245 29" fill="none" xmlns="http://www.w3.org/2000/svg">
<path d="M7.92 28V1.12H0.24V28H7.92ZM41.8284 1.12H34.1484L27.7484 17.12L21.3484 1.12H13.6684L11.1084 28H18.7884L20.0684 13.92L24.5484 28H30.9484L35.4284 13.92L36.7084 28H44.3884L41.8284 1.12ZM63.6563 1.12H56.4563L45.3362 28H53.1363L54.8563 23.52H65.2563L66.9763 28H74.7763L63.6563 1.12ZM57.0963 17.76L60.0563 10.08L63.0163 17.76H57.0963ZM94.6053 1.12V15.84L84.3653 1.12H76.6853V28H84.3653V13.28L94.6053 28H102.285V1.12H94.6053ZM119.891 0.479999C111.771 0.479999 105.171 6.8 105.171 14.56C105.171 22.32 111.771 28.64 119.891 28.64C128.011 28.64 134.611 22.32 134.611 14.56C134.611 6.8 128.011 0.479999 119.891 0.479999ZM119.891 21.6C116.011 21.6 112.851 18.44 112.851 14.56C112.851 10.68 116.011 7.52 119.891 7.52C123.771 7.52 126.931 10.68 126.931 14.56C126.931 18.44 123.771 21.6 119.891 21.6ZM164.458 12H149.338V17.76H156.778C155.738 20.12 153.538 21.6 150.938 21.6C147.218 21.6 144.218 18.44 144.218 14.56C144.218 10.68 147.218 7.52 150.938 7.52C153.058 7.52 154.898 8.52 156.138 10.12L163.378 8.16C160.978 3.6 156.658 0.479999 150.938 0.479999C142.978 0.479999 136.538 6.8 136.538 14.56C136.538 22.32 142.978 28.64 150.938 28.64C158.898 28.64 164.698 22.32 164.698 14.56C164.698 13.64 164.618 12.88 164.458 12ZM175.264 20.96V1.12H167.584V28H185.504V20.96H175.264ZM201.532 0.479999C193.412 0.479999 186.812 6.8 186.812 14.56C186.812 22.32 193.412 28.64 201.532 28.64C209.652 28.64 216.252 22.32 216.252 14.56C216.252 6.8 209.652 0.479999 201.532 0.479999ZM201.532 21.6C197.652 21.6 194.492 18.44 194.492 14.56C194.492 10.68 197.652 7.52 201.532 7.52C205.412 7.52 208.572 10.68 208.572 14.56C208.572 18.44 205.412 21.6 201.532 21.6ZM235.786 1.12V16.56C235.786 19.92 233.546 21.6 231.306 21.6C229.066 21.6 226.826 19.92 226.826 16.56V1.12H218.506V16.48C218.506 23.56 223.306 28.64 231.306 28.64C239.306 28.64 244.106 23.56 244.106 16.48V1.12H235.786Z" fill="black"/>
</svg>
